<svg xmlns="http://www.w3.org/2000/svg" viewBox="0 0 100 100" stroke="rgb(184, 255, 241)" fill="#29403f" stroke-width="5" stroke-linecap="round" stroke-linejoin="round">
  <!-- Outer rounded rectangle -->
  <rect x="5" y="5" width="90" height="90" rx="10" ry="10" />

  <!-- Top vertical lines -->
  <line x1="20" y1="5" x2="20" y2="30" />
  <line x1="50" y1="5" x2="50" y2="30" />
  <line x1="80" y1="5" x2="80" y2="30" />

  <!-- Bottom vertical lines -->
  <line x1="30" y1="95" x2="30" y2="70" />
  <line x1="70" y1="95" x2="70" y2="70" />

  <!-- Horizontal traces -->
  <line x1="5" y1="50" x2="30" y2="50" />
  <line x1="70" y1="50" x2="95" y2="50" />

  <!-- Connect top to mid circles -->
  <line x1="20" y1="30" x2="30" y2="50" />
  <line x1="50" y1="30" x2="50" y2="50" />
  <line x1="80" y1="30" x2="70" y2="50" />

  <!-- Connect mid to bottom circles -->
  <line x1="30" y1="50" x2="30" y2="70" />
  <line x1="70" y1="50" x2="70" y2="70" />

  <!-- Pads (circles) -->
  <circle cx="20" cy="30" r="5" />
  <circle cx="50" cy="30" r="5" />
  <circle cx="80" cy="30" r="5" />
  <circle cx="30" cy="50" r="5" />
  <circle cx="70" cy="50" r="5" />
  <circle cx="30" cy="70" r="5" />
  <circle cx="70" cy="70" r="5" />
</svg>
